<svg width="22" height="30" viewBox="0 0 22 30" fill="none" xmlns="http://www.w3.org/2000/svg">
<path d="M11 0C4.93452 0 0 5.02049 0 11.1916C0 20.3861 9.9051 29.3637 10.3269 29.7415C10.5192 29.9137 10.7595 30 11 30C11.2405 30 11.4808 29.9138 11.6732 29.7415C12.0948 29.3638 22 20.3862 22 11.1916C22 5.02049 17.0655 0 11 0ZM11 27.5442C8.81009 25.3861 2.03706 18.1474 2.03706 11.1916C2.03706 6.16291 6.05783 2.07171 11 2.07171C15.9422 2.07171 19.9629 6.16291 19.9629 11.1916C19.9629 18.1473 13.1899 25.386 11 27.5442Z" fill="#E6F0FF" fill-opacity="0.901961"/>
<path d="M11 6C8.24295 6 6 8.243 6 11C6 13.7571 8.24295 16 11 16C13.7571 16 16 13.7571 16 11C16 8.243 13.7571 6 11 6ZM11 14.0131C9.34575 14.0131 7.99994 12.6615 7.99994 11C7.99994 9.33863 9.34575 7.98686 11 7.98686C12.6542 7.98686 14.0001 9.33853 14.0001 11C14.0001 12.6615 12.6542 14.0131 11 14.0131Z" fill="#E6F0FF"/>
</svg>
